<?xml version="1.0" standalone="no"?>
<!DOCTYPE svg PUBLIC "-//W3C//DTD SVG 20010904//EN"
 "http://www.w3.org/TR/2001/REC-SVG-20010904/DTD/svg10.dtd">
<svg version="1.0" xmlns="http://www.w3.org/2000/svg"
 width="1082.000000pt" height="1082.000000pt" viewBox="0 0 1082.000000 1082.000000"
 preserveAspectRatio="xMidYMid meet">

<g transform="translate(0.000000,1082.000000) scale(0.100000,-0.100000)"
fill="#000000" stroke="none">
<path d="M5165 10794 c-1365 -75 -2608 -626 -3560 -1579 -822 -822 -1355
-1879 -1525 -3025 -42 -287 -53 -453 -53 -790 0 -426 26 -693 108 -1095 174
-852 580 -1695 1142 -2366 l65 -78 37 19 c20 10 452 255 961 543 l925 525 5
1653 c6 1824 1 1679 68 1823 65 138 166 249 299 328 137 81 345 109 508 68
140 -34 234 -88 336 -190 96 -96 155 -199 188 -326 l19 -69 1568 -5 c1162 -4
1576 -8 1595 -17 32 -14 77 -66 85 -99 17 -67 -19 -149 -79 -182 -30 -16 -134
-17 -1599 -20 l-1568 -2 0 -95 0 -95 1458 0 1458 0 44 -22 c77 -40 85 -60 84
-211 -1 -147 -12 -226 -55 -401 -84 -336 -254 -632 -508 -885 -390 -388 -929
-590 -1465 -551 -354 27 -668 133 -948 322 -31 21 -59 38 -62 38 -3 0 -7 -496
-9 -1102 -3 -1084 -3 -1105 -25 -1232 -27 -160 -54 -276 -89 -381 -128 -394
-282 -667 -548 -974 -74 -87 -91 -111 -77 -115 262 -78 633 -147 982 -182 229
-24 751 -24 980 0 1296 132 2428 663 3325 1561 822 822 1355 1879 1525 3025
42 287 53 453 53 790 0 337 -11 503 -53 790 -224 1512 -1079 2857 -2355 3705
-748 497 -1581 792 -2490 880 -156 15 -609 27 -750 19z"/>
</g>
</svg>
